<svg width="230" height="284" viewBox="0 0 230 284" fill="none" xmlns="http://www.w3.org/2000/svg">
<path d="M12.3808 8.22742C15.6874 8.22742 17.3408 9.98742 17.3408 13.5074V18.6674C17.3408 22.1874 15.6874 23.9474 12.3808 23.9474H7.86078V34.1074H2.26078V8.22742H12.3808ZM11.7408 19.3074V12.8674C11.7408 12.6541 11.6608 12.4674 11.5008 12.3074C11.3674 12.1474 11.1941 12.0674 10.9808 12.0674H7.86078V20.1074H10.9808C11.1941 20.1074 11.3674 20.0274 11.5008 19.8674C11.6608 19.7074 11.7408 19.5208 11.7408 19.3074ZM52.9523 23.9474V34.1074H47.3523V8.22742H52.9523V19.0674H57.3923V8.22742H62.9923V34.1074H57.3923V23.9474H52.9523ZM99.8008 8.22742V34.1074H94.2008V8.22742H99.8008ZM136.766 29.3874H142.886V34.1074H131.166V8.22742H136.766V29.3874ZM178.341 29.3874H184.461V34.1074H172.741V8.22742H178.341V29.3874ZM229.316 8.22742L223.756 24.6674V34.1074H218.156V24.6674L212.596 8.22742H217.876L220.956 19.0274L224.036 8.22742H229.316Z" fill="#1C4587"/>
<path d="M3.898 73.4194V61.9954H37.498V73.4194H27.418V124.107H13.978V73.4194H3.898ZM61.8775 98.6674V124.107H48.4375V61.9954H72.3415C80.2775 61.9954 84.2455 66.2194 84.2455 74.6674V81.8674C84.2455 86.9874 82.4215 90.2514 78.7735 91.6594C81.9735 92.8114 83.5735 95.4354 83.5735 99.5314V124.107H70.1335V100.587C70.1335 99.3074 69.5255 98.6674 68.3095 98.6674H61.8775ZM61.8775 71.1154V89.2594H68.9815C69.4935 89.2594 69.9095 89.0674 70.2295 88.6834C70.6135 88.2994 70.8055 87.8514 70.8055 87.3394V73.0354C70.8055 72.5234 70.6135 72.0754 70.2295 71.6914C69.9095 71.3074 69.4935 71.1154 68.9815 71.1154H61.8775ZM119.851 61.9954H133.291V112.395C133.291 120.843 129.323 125.067 121.387 125.067H109.483C101.547 125.067 97.579 120.843 97.579 112.395V61.9954H111.019V113.547C111.019 114.059 111.179 114.507 111.499 114.891C111.883 115.275 112.331 115.467 112.843 115.467H118.027C118.539 115.467 118.955 115.275 119.275 114.891C119.659 114.507 119.851 114.059 119.851 113.547V61.9954ZM170.423 113.931V104.331H183.191V112.395C183.191 120.843 179.223 125.067 171.287 125.067H159.191C151.255 125.067 147.287 120.843 147.287 112.395V73.7074C147.287 65.2594 151.255 61.0354 159.191 61.0354H171.287C179.223 61.0354 183.191 65.2594 183.191 73.7074V79.5634H170.423V72.0754C170.423 71.5634 170.231 71.1154 169.847 70.7314C169.527 70.3474 169.111 70.1554 168.599 70.1554H162.551C162.039 70.1554 161.591 70.3474 161.207 70.7314C160.887 71.1154 160.727 71.5634 160.727 72.0754V113.931C160.727 114.443 160.887 114.891 161.207 115.275C161.591 115.659 162.039 115.851 162.551 115.851H168.599C169.111 115.851 169.527 115.659 169.847 115.275C170.231 114.891 170.423 114.443 170.423 113.931ZM209.496 112.971H224.376V124.107H196.056V61.9954H224.376V72.9394H209.496V87.5314H223.416V98.0914H209.496V112.971Z" fill="#1C4587"/>
<path d="M127.058 169.764C127.058 169.764 58.8159 233.325 57.1821 241.175C57.1821 241.175 59.7375 242.814 62.3069 246.94C65.2812 251.721 69.2609 253.926 71.4951 252.988C74.7208 251.647 74.7348 249.204 74.7348 249.204L118.749 273.261C118.749 273.261 135.687 269.999 173.069 237.719L183.444 225.504L127.058 169.764Z" fill="#512400"/>
<path d="M57.3358 170.881C57.3358 170.881 64.0245 177.494 73.4501 173.383L103.109 160.17C103.109 160.17 113.401 154.033 122.24 162.464C122.24 162.464 110.748 184.078 128.412 190.409C128.412 190.409 145.071 201.432 153.38 211.576C157.555 216.671 166.729 225.609 171.002 230.524C172.147 231.85 174.577 233.906 175.708 235.812C177.272 238.449 180.204 244.124 173.921 248.414C173.921 248.414 169.578 252.645 162.582 246.642C156.089 241.056 145.085 228.647 138.229 222.644C137.852 222.316 136.064 221.676 138.313 224.7C141.091 228.424 154.539 242.113 154.539 242.113C154.539 242.113 159.594 246.969 160.669 249.234C161.604 251.215 162.917 255.475 159.077 259.393C159.077 259.393 153.589 265.381 146.132 259.035L129.236 242.739C129.236 242.739 125.619 239.492 128.314 243.886C128.314 243.886 145.462 260.51 145.937 262.759C147.319 269.164 142.306 276.478 133.593 271.443L113.82 256.205C113.82 256.205 111.921 255.639 113.303 257.501C113.303 257.501 131.722 270.997 132.95 272.382C134.556 274.184 129.348 280.947 120.718 276.791C108.402 270.877 83.4064 259.825 71.4812 253.047C67.292 250.664 58.802 244.646 55.5763 241.935C55.5763 241.935 42.7016 230.658 23.585 227.679L44.8101 166.769L57.3358 170.881Z" fill="#9B4F04"/>
<path d="M70.5597 256.117C70.5597 256.117 75.2795 250.963 78.0304 249.235C83.602 245.734 92.2736 251.022 92.106 256.206C92.106 256.206 93.4884 261.509 84.4258 267.84C82.7502 269.002 77.5556 271.624 71.2579 264.518C71.2439 264.518 67.5435 259.841 70.5597 256.117Z" fill="#512400"/>
<path d="M86.6738 269.628C86.981 265.829 92.7621 259.558 95.2337 257.398C98.1382 254.851 108.555 253.451 108.374 265.07C108.374 265.07 106.796 273.024 100.652 276.838C97.7193 278.67 86.0315 277.672 86.6738 269.628Z" fill="#512400"/>
<path d="M109.966 266.945C112.033 264.264 120.704 264.025 119.908 272.412C119.601 275.585 117.437 280.605 112.787 282.079C109.408 283.152 101.225 279.562 103.277 276.106C104.674 273.738 105.302 273.008 109.966 266.945Z" fill="#512400"/>
<path d="M68.8978 256.951C68.8978 256.951 73.6176 251.797 76.3685 250.069C81.9401 246.568 90.6117 251.856 90.4442 257.04C90.4442 257.04 91.8266 262.343 82.764 268.674C81.0883 269.836 75.8937 272.458 69.596 265.352C69.582 265.337 65.8816 260.66 68.8978 256.951Z" fill="#A85809"/>
<path d="M83.0017 207.362C83.0017 207.362 93.5584 218.847 109.17 191.021C109.17 191.021 115.342 194.298 126.108 189.442L128.608 186.254C128.608 186.254 107.955 185.822 107.997 186.269C108.039 186.701 83.0017 207.362 83.0017 207.362Z" fill="#512400"/>
<path d="M85.0123 270.446C85.3195 266.648 91.1005 260.377 93.5721 258.217C96.4766 255.669 106.894 254.284 106.712 265.888C106.712 265.888 105.134 273.828 98.9902 277.656C96.0577 279.488 84.356 278.505 85.0123 270.446Z" fill="#A85809"/>
<path d="M108.304 267.781C110.371 265.1 119.042 264.861 118.246 273.248C117.939 276.421 115.775 281.441 111.125 282.915C107.746 283.988 99.5627 280.398 101.615 276.942C102.998 274.574 103.64 273.844 108.304 267.781Z" fill="#A85809"/>
<path d="M56.7912 247.506C57.7408 245.868 59.1511 244.378 61.8462 242.605C63.4799 241.533 67.6831 241.607 69.9732 243.603C71.6209 245.033 74.8186 248.311 73.7294 250.694C71.6628 255.222 68.3533 261.285 63.047 258.693C63.061 258.678 52.5881 254.79 56.7912 247.506Z" fill="#512400"/>
<path d="M55.1573 247.461C56.1069 245.823 57.5172 244.333 60.2123 242.56C61.8461 241.488 66.0492 241.562 68.3393 243.558C69.987 244.988 73.1848 248.266 72.1095 250.649C70.0429 255.177 66.7334 261.24 61.4271 258.648C61.4271 258.633 50.9402 254.745 55.1573 247.461Z" fill="#A85809"/>
<path d="M55.8557 164.416L35.3287 241.1L0 228.781L25.4702 151.277L55.8557 164.416Z" fill="#1C4587"/>
<path d="M59.4584 245.361C59.4584 245.361 57.0566 250.485 59.9331 253.151C59.9331 253.151 63.3683 258.871 69.3867 250.991C70.3921 249.68 68.8282 246.91 65.6304 245.524C65.6165 245.524 62.6421 243.826 59.4584 245.361Z" fill="#B8630F"/>
<path d="M73.9109 257.145C73.9109 257.145 76.5501 252.497 78.3933 251.976C80.2924 251.44 85.7244 252.05 87.3163 258.024C87.5955 259.051 85.9338 260.899 85.1798 261.897C83.7694 263.729 80.3902 266.306 77.1086 263.788C77.1226 263.803 72.8217 261.45 73.9109 257.145Z" fill="#B8630F"/>
<path d="M91.8402 263.847C92.4966 262.476 94.7029 260.138 96.4483 260.182C99.3249 260.257 105.623 263.4 103.36 267.645C103.36 267.645 101.419 271.25 98.124 271.697C98.124 271.697 92.329 273.067 90.9326 267.288C90.7371 266.424 91.4632 264.636 91.8402 263.847Z" fill="#B8630F"/>
<path d="M105.874 274.469C106.433 276.763 109.673 279.474 112.06 277.686C113.024 276.956 115.146 274.394 115.398 273.158C115.817 271.073 112.451 266.097 108.555 269.791C107.634 270.67 105.567 273.203 105.874 274.469Z" fill="#B8630F"/>
<path d="M135.967 162.227C134.794 161.691 124.167 157.193 114.56 165.117C114.518 165.162 114.462 165.192 114.406 165.207L98.1942 173.012C98.1523 173.027 98.0964 173.057 98.0545 173.057C97.3424 173.236 91.2262 174.978 88.3077 183.35C88.2937 183.41 88.2658 183.454 88.2379 183.499L79.5802 197.784C79.5663 197.799 79.5663 197.814 79.5523 197.814C79.2451 198.261 73.1848 207.511 89.0478 208.286C89.1316 208.286 89.2293 208.271 89.3131 208.241C90.514 207.824 99.5347 204.353 108.15 190.575C108.22 190.47 108.262 190.336 108.276 190.202C108.332 189.591 108.988 189.264 109.463 189.621C110.329 190.262 111.879 190.872 114.63 190.738C114.672 190.738 114.713 190.723 114.755 190.723C115.384 190.589 120.732 189.383 128.021 187.849C128.286 187.789 128.566 187.893 128.733 188.117C129.348 188.861 131.219 190.858 136.372 194.85C136.372 194.85 153.058 207.228 156.703 213.187C156.731 213.231 156.773 213.276 156.801 213.321L175.889 233.311C176.127 233.549 176.476 233.609 176.769 233.46C178.054 232.745 181.852 230.049 189.588 220.232C189.7 220.098 189.839 219.994 190.007 219.964L208.439 215.644C208.844 215.555 209.11 215.108 209.012 214.676L196.57 156.85C196.472 156.403 196.067 156.135 195.648 156.239C190.859 157.505 164.467 164.417 156.41 164.209C156.396 164.209 156.368 164.209 156.354 164.209L136.204 162.272C136.12 162.272 136.036 162.257 135.967 162.227Z" fill="#A85809"/>
<path d="M183.249 155.688L201.304 223.703L230 216.061L210.869 147.107L183.249 155.688Z" fill="#1C4587"/>
<path d="M83.895 190.679C83.895 190.679 90.7373 188.921 92.0918 194.001C92.0918 194.001 89.0896 202.327 86.6319 203.936C84.7328 205.173 78.9378 205.009 78.1838 201.717C78.1698 201.717 77.8486 198.38 83.895 190.679Z" fill="#B8630F"/>
<path d="M142.628 199.734C142.628 199.734 154.148 206.691 167.651 197.857C167.651 197.857 157.792 208.836 146.914 203.28L142.628 199.734Z" fill="#512400"/>
<path d="M24.8277 225.357C24.7719 227.755 22.9007 229.647 20.6525 229.588C18.4043 229.528 16.6309 227.532 16.7007 225.134C16.7566 222.735 18.6277 220.844 20.8759 220.918C23.1102 220.963 24.8836 222.959 24.8277 225.357Z" fill="#1C4587"/>
<path d="M24.8416 224.388C24.7858 226.787 22.9146 228.678 20.6664 228.619C18.4182 228.559 16.6448 226.563 16.7146 224.165C16.7705 221.767 18.6417 219.875 20.8899 219.949C23.138 219.994 24.9115 221.99 24.8416 224.388Z" fill="white"/>
<path d="M217.474 208.97C217.418 211.368 215.547 213.26 213.298 213.186C211.05 213.126 209.277 211.13 209.347 208.732C209.403 206.334 211.274 204.442 213.522 204.501C215.77 204.576 217.544 206.572 217.474 208.97Z" fill="#1C4587"/>
<path d="M217.502 208.003C217.446 210.401 215.575 212.293 213.326 212.218C211.078 212.159 209.305 210.163 209.375 207.765C209.43 205.366 211.302 203.475 213.55 203.549C215.784 203.609 217.557 205.605 217.502 208.003Z" fill="white"/>
</svg>
